<mxfile host="app.diagrams.net" modified="2021-10-28T13:23:32.279Z" agent="5.0 (X11; Linux x86_64) AppleWebKit/537.36 (KHTML, like Gecko) Chrome/93.0.4577.63 Safari/537.36" etag="lgp_xM2o3ITI7YiJdQO8" version="15.6.1" type="github">
  <diagram id="gBcou01xzdm4x2pavO9m" name="Page-1">
    <mxGraphModel dx="1185" dy="670" grid="1" gridSize="10" guides="1" tooltips="1" connect="1" arrows="1" fold="1" page="1" pageScale="1" pageWidth="827" pageHeight="1169" math="0" shadow="0">
      <root>
        <mxCell id="0" />
        <mxCell id="1" parent="0" />
        <mxCell id="3pWWZFJcayxJ1vsHzLGc-102" style="edgeStyle=orthogonalEdgeStyle;rounded=0;orthogonalLoop=1;jettySize=auto;html=1;exitX=0.5;exitY=1;exitDx=0;exitDy=0;entryX=0.5;entryY=0;entryDx=0;entryDy=0;" edge="1" parent="1" source="3pWWZFJcayxJ1vsHzLGc-2" target="3pWWZFJcayxJ1vsHzLGc-3">
          <mxGeometry relative="1" as="geometry" />
        </mxCell>
        <mxCell id="3pWWZFJcayxJ1vsHzLGc-2" value="" style="rounded=0;whiteSpace=wrap;html=1;" vertex="1" parent="1">
          <mxGeometry x="320" y="20" width="210" height="80" as="geometry" />
        </mxCell>
        <mxCell id="3pWWZFJcayxJ1vsHzLGc-103" style="edgeStyle=orthogonalEdgeStyle;rounded=0;orthogonalLoop=1;jettySize=auto;html=1;exitX=0.5;exitY=1;exitDx=0;exitDy=0;entryX=0.5;entryY=0;entryDx=0;entryDy=0;" edge="1" parent="1" source="3pWWZFJcayxJ1vsHzLGc-3" target="3pWWZFJcayxJ1vsHzLGc-9">
          <mxGeometry relative="1" as="geometry" />
        </mxCell>
        <mxCell id="3pWWZFJcayxJ1vsHzLGc-104" style="edgeStyle=orthogonalEdgeStyle;rounded=0;orthogonalLoop=1;jettySize=auto;html=1;exitX=0.5;exitY=1;exitDx=0;exitDy=0;" edge="1" parent="1" source="3pWWZFJcayxJ1vsHzLGc-3" target="3pWWZFJcayxJ1vsHzLGc-85">
          <mxGeometry relative="1" as="geometry" />
        </mxCell>
        <mxCell id="3pWWZFJcayxJ1vsHzLGc-105" style="edgeStyle=orthogonalEdgeStyle;rounded=0;orthogonalLoop=1;jettySize=auto;html=1;exitX=0.5;exitY=1;exitDx=0;exitDy=0;entryX=0.5;entryY=0;entryDx=0;entryDy=0;" edge="1" parent="1" source="3pWWZFJcayxJ1vsHzLGc-3" target="3pWWZFJcayxJ1vsHzLGc-93">
          <mxGeometry relative="1" as="geometry">
            <Array as="points">
              <mxPoint x="425" y="240" />
              <mxPoint x="575" y="240" />
            </Array>
          </mxGeometry>
        </mxCell>
        <mxCell id="3pWWZFJcayxJ1vsHzLGc-3" value="Escalonador" style="rounded=0;whiteSpace=wrap;html=1;fillColor=#dae8fc;strokeColor=#6c8ebf;" vertex="1" parent="1">
          <mxGeometry x="334.5" y="160" width="180" height="30" as="geometry" />
        </mxCell>
        <mxCell id="3pWWZFJcayxJ1vsHzLGc-4" value="c1" style="rounded=0;whiteSpace=wrap;html=1;fillColor=#f5f5f5;fontColor=#333333;strokeColor=#666666;" vertex="1" parent="1">
          <mxGeometry x="330" y="50" width="40" height="40" as="geometry" />
        </mxCell>
        <mxCell id="3pWWZFJcayxJ1vsHzLGc-5" value="c2" style="rounded=0;whiteSpace=wrap;html=1;fillColor=#f5f5f5;fontColor=#333333;strokeColor=#666666;" vertex="1" parent="1">
          <mxGeometry x="380" y="50" width="40" height="40" as="geometry" />
        </mxCell>
        <mxCell id="3pWWZFJcayxJ1vsHzLGc-6" value="c3" style="rounded=0;whiteSpace=wrap;html=1;fillColor=#f5f5f5;fontColor=#333333;strokeColor=#666666;" vertex="1" parent="1">
          <mxGeometry x="430" y="50" width="40" height="40" as="geometry" />
        </mxCell>
        <mxCell id="3pWWZFJcayxJ1vsHzLGc-7" value="c4" style="rounded=0;whiteSpace=wrap;html=1;fillColor=#f5f5f5;fontColor=#333333;strokeColor=#666666;" vertex="1" parent="1">
          <mxGeometry x="480" y="50" width="40" height="40" as="geometry" />
        </mxCell>
        <mxCell id="3pWWZFJcayxJ1vsHzLGc-8" value="Job" style="text;html=1;strokeColor=none;fillColor=none;align=center;verticalAlign=middle;whiteSpace=wrap;rounded=0;" vertex="1" parent="1">
          <mxGeometry x="320" y="20" width="40" height="20" as="geometry" />
        </mxCell>
        <mxCell id="3pWWZFJcayxJ1vsHzLGc-9" value="w1" style="rounded=0;whiteSpace=wrap;html=1;" vertex="1" parent="1">
          <mxGeometry x="240.7" y="290" width="52.87" height="50" as="geometry" />
        </mxCell>
        <mxCell id="3pWWZFJcayxJ1vsHzLGc-16" value="" style="rounded=0;whiteSpace=wrap;html=1;" vertex="1" parent="1">
          <mxGeometry x="218.81" y="351" width="75" height="70" as="geometry" />
        </mxCell>
        <mxCell id="3pWWZFJcayxJ1vsHzLGc-17" value="" style="rounded=0;whiteSpace=wrap;html=1;" vertex="1" parent="1">
          <mxGeometry x="228.81" y="361" width="75" height="70" as="geometry" />
        </mxCell>
        <mxCell id="3pWWZFJcayxJ1vsHzLGc-18" value="" style="rounded=0;whiteSpace=wrap;html=1;" vertex="1" parent="1">
          <mxGeometry x="238.81" y="371" width="75" height="70" as="geometry" />
        </mxCell>
        <mxCell id="3pWWZFJcayxJ1vsHzLGc-19" value="" style="rounded=0;whiteSpace=wrap;html=1;" vertex="1" parent="1">
          <mxGeometry x="248.81" y="381" width="75" height="70" as="geometry" />
        </mxCell>
        <mxCell id="3pWWZFJcayxJ1vsHzLGc-21" value="" style="rounded=0;whiteSpace=wrap;html=1;" vertex="1" parent="1">
          <mxGeometry x="228.81" y="361" width="75" height="70" as="geometry" />
        </mxCell>
        <mxCell id="3pWWZFJcayxJ1vsHzLGc-22" value="" style="rounded=0;whiteSpace=wrap;html=1;" vertex="1" parent="1">
          <mxGeometry x="238.81" y="371" width="75" height="70" as="geometry" />
        </mxCell>
        <mxCell id="3pWWZFJcayxJ1vsHzLGc-23" value="Nodes" style="rounded=0;whiteSpace=wrap;html=1;" vertex="1" parent="1">
          <mxGeometry x="248.81" y="381" width="75" height="70" as="geometry" />
        </mxCell>
        <mxCell id="3pWWZFJcayxJ1vsHzLGc-85" value="w1" style="rounded=0;whiteSpace=wrap;html=1;" vertex="1" parent="1">
          <mxGeometry x="398.07" y="289" width="52.87" height="50" as="geometry" />
        </mxCell>
        <mxCell id="3pWWZFJcayxJ1vsHzLGc-86" value="" style="rounded=0;whiteSpace=wrap;html=1;" vertex="1" parent="1">
          <mxGeometry x="376.18" y="350" width="75" height="70" as="geometry" />
        </mxCell>
        <mxCell id="3pWWZFJcayxJ1vsHzLGc-87" value="" style="rounded=0;whiteSpace=wrap;html=1;" vertex="1" parent="1">
          <mxGeometry x="386.18" y="360" width="75" height="70" as="geometry" />
        </mxCell>
        <mxCell id="3pWWZFJcayxJ1vsHzLGc-88" value="" style="rounded=0;whiteSpace=wrap;html=1;" vertex="1" parent="1">
          <mxGeometry x="396.18" y="370" width="75" height="70" as="geometry" />
        </mxCell>
        <mxCell id="3pWWZFJcayxJ1vsHzLGc-89" value="" style="rounded=0;whiteSpace=wrap;html=1;" vertex="1" parent="1">
          <mxGeometry x="406.18" y="380" width="75" height="70" as="geometry" />
        </mxCell>
        <mxCell id="3pWWZFJcayxJ1vsHzLGc-90" value="" style="rounded=0;whiteSpace=wrap;html=1;" vertex="1" parent="1">
          <mxGeometry x="386.18" y="360" width="75" height="70" as="geometry" />
        </mxCell>
        <mxCell id="3pWWZFJcayxJ1vsHzLGc-91" value="" style="rounded=0;whiteSpace=wrap;html=1;" vertex="1" parent="1">
          <mxGeometry x="396.18" y="370" width="75" height="70" as="geometry" />
        </mxCell>
        <mxCell id="3pWWZFJcayxJ1vsHzLGc-92" value="Nodes" style="rounded=0;whiteSpace=wrap;html=1;" vertex="1" parent="1">
          <mxGeometry x="406.18" y="380" width="75" height="70" as="geometry" />
        </mxCell>
        <mxCell id="3pWWZFJcayxJ1vsHzLGc-93" value="w1" style="rounded=0;whiteSpace=wrap;html=1;" vertex="1" parent="1">
          <mxGeometry x="548.0699999999999" y="289" width="52.87" height="50" as="geometry" />
        </mxCell>
        <mxCell id="3pWWZFJcayxJ1vsHzLGc-94" value="" style="rounded=0;whiteSpace=wrap;html=1;" vertex="1" parent="1">
          <mxGeometry x="526.18" y="350" width="75" height="70" as="geometry" />
        </mxCell>
        <mxCell id="3pWWZFJcayxJ1vsHzLGc-95" value="" style="rounded=0;whiteSpace=wrap;html=1;" vertex="1" parent="1">
          <mxGeometry x="536.18" y="360" width="75" height="70" as="geometry" />
        </mxCell>
        <mxCell id="3pWWZFJcayxJ1vsHzLGc-96" value="" style="rounded=0;whiteSpace=wrap;html=1;" vertex="1" parent="1">
          <mxGeometry x="546.18" y="370" width="75" height="70" as="geometry" />
        </mxCell>
        <mxCell id="3pWWZFJcayxJ1vsHzLGc-97" value="" style="rounded=0;whiteSpace=wrap;html=1;" vertex="1" parent="1">
          <mxGeometry x="556.18" y="380" width="75" height="70" as="geometry" />
        </mxCell>
        <mxCell id="3pWWZFJcayxJ1vsHzLGc-98" value="" style="rounded=0;whiteSpace=wrap;html=1;" vertex="1" parent="1">
          <mxGeometry x="536.18" y="360" width="75" height="70" as="geometry" />
        </mxCell>
        <mxCell id="3pWWZFJcayxJ1vsHzLGc-99" value="" style="rounded=0;whiteSpace=wrap;html=1;" vertex="1" parent="1">
          <mxGeometry x="546.18" y="370" width="75" height="70" as="geometry" />
        </mxCell>
        <mxCell id="3pWWZFJcayxJ1vsHzLGc-100" value="Nodes" style="rounded=0;whiteSpace=wrap;html=1;" vertex="1" parent="1">
          <mxGeometry x="556.18" y="380" width="75" height="70" as="geometry" />
        </mxCell>
        <mxCell id="3pWWZFJcayxJ1vsHzLGc-106" value="c1" style="rounded=0;whiteSpace=wrap;html=1;fillColor=#f5f5f5;fontColor=#333333;strokeColor=#666666;" vertex="1" parent="1">
          <mxGeometry x="267" y="213" width="20" height="20" as="geometry" />
        </mxCell>
        <mxCell id="3pWWZFJcayxJ1vsHzLGc-110" value="c2" style="rounded=0;whiteSpace=wrap;html=1;fillColor=#f5f5f5;fontColor=#333333;strokeColor=#666666;" vertex="1" parent="1">
          <mxGeometry x="293.57" y="213" width="20" height="20" as="geometry" />
        </mxCell>
        <mxCell id="3pWWZFJcayxJ1vsHzLGc-111" value="c3" style="rounded=0;whiteSpace=wrap;html=1;fillColor=#f5f5f5;fontColor=#333333;strokeColor=#666666;" vertex="1" parent="1">
          <mxGeometry x="400" y="250" width="20" height="20" as="geometry" />
        </mxCell>
        <mxCell id="3pWWZFJcayxJ1vsHzLGc-112" value="c4" style="rounded=0;whiteSpace=wrap;html=1;fillColor=#f5f5f5;fontColor=#333333;strokeColor=#666666;" vertex="1" parent="1">
          <mxGeometry x="554.4999999999999" y="213" width="20" height="20" as="geometry" />
        </mxCell>
        <mxCell id="3pWWZFJcayxJ1vsHzLGc-114" value="Escalonador busca pods na fila de escalonamento&amp;nbsp;" style="text;html=1;strokeColor=none;fillColor=none;align=left;verticalAlign=middle;whiteSpace=wrap;rounded=0;fontSize=10;" vertex="1" parent="1">
          <mxGeometry x="430" y="115" width="150" height="30" as="geometry" />
        </mxCell>
        <mxCell id="3pWWZFJcayxJ1vsHzLGc-115" value="Utiliza algum algoritmo de particionamento" style="text;html=1;strokeColor=none;fillColor=none;align=right;verticalAlign=middle;whiteSpace=wrap;rounded=0;fontSize=10;" vertex="1" parent="1">
          <mxGeometry x="181.31" y="160" width="150" height="30" as="geometry" />
        </mxCell>
        <mxCell id="3pWWZFJcayxJ1vsHzLGc-116" value="Particiona o job entre os trabalhadores" style="text;html=1;strokeColor=none;fillColor=none;align=left;verticalAlign=middle;whiteSpace=wrap;rounded=0;fontSize=10;" vertex="1" parent="1">
          <mxGeometry x="430" y="200" width="80" height="30" as="geometry" />
        </mxCell>
        <mxCell id="3pWWZFJcayxJ1vsHzLGc-117" value="Cada trabalhador possui um conjunto de nodes vinculado" style="text;html=1;strokeColor=none;fillColor=none;align=left;verticalAlign=middle;whiteSpace=wrap;rounded=0;fontSize=10;" vertex="1" parent="1">
          <mxGeometry x="606" y="298" width="108.82" height="30" as="geometry" />
        </mxCell>
      </root>
    </mxGraphModel>
  </diagram>
</mxfile>
